<?xml version="1.0" standalone="no"?>
<!DOCTYPE svg PUBLIC "-//W3C//DTD SVG 20010904//EN"
 "http://www.w3.org/TR/2001/REC-SVG-20010904/DTD/svg10.dtd">
<svg version="1.0" xmlns="http://www.w3.org/2000/svg"
 width="200.000000pt" height="200.000000pt" viewBox="0 0 200.000000 200.000000"
 preserveAspectRatio="xMidYMid meet">

<g transform="translate(0.000000,200.000000) scale(0.100000,-0.100000)"
fill="#ffffff" stroke="none">
<path d="M875 1829 c-66 -39 -121 -72 -122 -73 -1 0 52 -32 118 -69 65 -38
119 -71 119 -75 0 -4 -52 -36 -115 -72 -63 -36 -115 -68 -115 -72 0 -3 52 -36
115 -73 63 -37 115 -70 115 -73 0 -4 -52 -36 -115 -72 -63 -36 -115 -68 -115
-72 0 -8 225 -138 240 -138 15 0 240 130 240 138 0 4 -52 36 -115 72 -63 36
-115 68 -115 72 0 3 52 36 115 73 63 37 115 70 115 73 0 4 -52 36 -115 72 -63
36 -115 68 -115 72 0 3 53 37 118 73 64 37 118 68 119 69 3 2 -242 146 -248
146 -2 0 -58 -32 -124 -71z"/>
<path d="M415 1564 c-44 -26 -99 -57 -123 -71 l-44 -25 126 -73 126 -73 120
70 c66 39 120 73 120 77 0 5 -232 141 -241 141 -2 0 -40 -21 -84 -46z"/>
<path d="M1378 1542 c-65 -37 -118 -70 -118 -73 0 -4 54 -38 120 -77 l120 -70
126 73 125 73 -124 71 c-68 39 -126 71 -128 71 -2 0 -57 -31 -121 -68z"/>
<path d="M210 1256 l0 -145 125 -71 125 -71 0 -144 0 -144 119 -71 c66 -38
122 -70 125 -70 3 0 6 63 6 140 0 77 2 140 5 140 4 0 123 -68 213 -122 l32
-20 0 145 0 145 -122 71 -123 70 -3 -140 c-1 -76 -6 -139 -10 -139 -4 1 -59
31 -122 68 l-115 67 -3 147 -3 147 -117 67 c-64 36 -120 69 -124 71 -5 2 -8
-61 -8 -141z"/>
<path d="M1665 1330 l-120 -69 -5 -148 -5 -148 -115 -67 c-63 -37 -118 -67
-122 -68 -4 0 -9 63 -10 139 l-3 140 -122 -70 -123 -71 0 -145 0 -145 33 20
c89 54 208 122 212 122 3 0 5 -63 5 -140 0 -77 3 -140 6 -140 3 0 59 32 125
70 l119 71 0 144 0 144 125 71 125 71 0 145 c0 79 -1 144 -2 144 -2 0 -57 -32
-123 -70z"/>
<path d="M210 677 l0 -145 103 -58 c56 -31 112 -64 125 -72 l22 -14 0 145 0
146 -67 39 c-38 22 -94 54 -125 72 l-58 32 0 -145z"/>
<path d="M1665 751 l-120 -68 -3 -148 -3 -148 23 15 c13 8 69 41 126 72 l102
58 0 144 c0 79 -1 144 -2 144 -2 0 -57 -31 -123 -69z"/>
<path d="M710 388 l0 -143 125 -72 126 -71 -3 145 -3 145 -118 69 c-65 38
-120 69 -123 69 -2 0 -4 -64 -4 -142z"/>
<path d="M1160 460 l-115 -68 -3 -145 -3 -145 126 71 125 72 0 143 c0 78 -3
142 -7 141 -5 0 -60 -31 -123 -69z"/>
</g>
</svg>
